<?xml version="1.0" encoding="UTF-8"?>
<svg width="26px" height="20px" viewBox="0 0 26 20" version="1.1" xmlns="http://www.w3.org/2000/svg" xmlns:xlink="http://www.w3.org/1999/xlink">
    <!-- Generator: Sketch 58 (84663) - https://sketch.com -->
    <title>icons8-discount_ticket</title>
    <desc>Created with Sketch.</desc>
    <g id="Page-1" stroke="none" stroke-width="1" fill="none" fill-rule="evenodd">
        <g id="Account" transform="translate(-259.000000, -77.000000)" fill="#121212" fill-rule="nonzero">
            <g id="icons8-discount_ticket" transform="translate(259.000000, 77.000000)">
                <path d="M2,0 C0.895,0 0,0.895 0,2 L0,7.183594 C1.163,7.596594 2,8.696 2,10 C2,11.304 1.163,12.403406 0,12.816406 L0,18 C0,19.105 0.895,20 2,20 L24,20 C25.105,20 26,19.105 26,18 L26,12.816406 C24.837,12.403406 24,11.304 24,10 C24,8.696 24.837,7.596594 26,7.183594 L26,2 C26,0.895 25.105,0 24,0 L2,0 Z M9.599609,4.4355469 C11.172609,4.4355469 12.199219,5.515781 12.199219,7.175781 C12.199219,8.828781 11.172609,9.916016 9.599609,9.916016 C8.035609,9.916016 7,8.828781 7,7.175781 C7,5.522781 8.028609,4.4355469 9.599609,4.4355469 Z M15.255859,4.7011719 L17.699219,4.7011719 L13.652344,10.289062 L10.818359,15.298828 L8.365234,15.298828 L12.347656,9.738281 L15.255859,4.7011719 Z M9.599609,6.015625 C9.151609,6.015625 8.880859,6.442922 8.880859,7.169922 C8.880859,7.889922 9.151609,8.322266 9.599609,8.322266 C10.040609,8.322266 10.3125,7.888922 10.3125,7.169922 C10.3125,6.435922 10.055609,6.015625 9.599609,6.015625 Z M16.408203,10.083984 C17.972203,10.083984 19,11.164406 19,12.816406 C19,14.477406 17.972203,15.5625 16.408203,15.5625 C14.844203,15.5625 13.816406,14.476406 13.816406,12.816406 C13.816406,11.164406 14.844203,10.083984 16.408203,10.083984 Z M16.408203,11.664062 C15.960203,11.664062 15.6875,12.089406 15.6875,12.816406 C15.6875,13.536406 15.960203,13.970703 16.408203,13.970703 C16.849203,13.970703 17.119141,13.536406 17.119141,12.816406 C17.119141,12.081406 16.855203,11.664062 16.408203,11.664062 Z" id="Shape"></path>
            </g>
        </g>
    </g>
</svg>