<?xml version="1.0" encoding="UTF-8"?>
<svg width="375px" height="96px" viewBox="0 0 375 96" version="1.1" xmlns="http://www.w3.org/2000/svg" xmlns:xlink="http://www.w3.org/1999/xlink">
    <!-- Generator: Sketch 58 (84663) - https://sketch.com -->
    <title>Group 2</title>
    <desc>Created with Sketch.</desc>
    <g id="Page-1" stroke="none" stroke-width="1" fill="none" fill-rule="evenodd">
        <g id="Eddit-Account" transform="translate(0.000000, -861.000000)">
            <g id="Group-2" transform="translate(0.000000, 861.000000)">
                <path d="M22,0 L353,0 C365.150264,-2.23196738e-15 375,9.8497355 375,22 L375,96 L375,96 L0,96 L0,22 C-1.48797825e-15,9.8497355 9.8497355,2.23196738e-15 22,0 Z" id="Rectangle" fill="#343232"></path>
                <text id="Search-for-a-scootap" font-family="Helvetica" font-size="24" font-weight="normal" fill="#FFFFFF">
                    <tspan x="110" y="58">Search for a scootapp</tspan>
                </text>
                <rect id="Rectangle" fill="#50E3C2" x="16" y="16" width="65" height="65" rx="8"></rect>
                <g id="icons8-map" transform="translate(27.000000, 28.000000)" fill="#121212" fill-rule="nonzero">
                    <path d="M0.770044494,0.00654872776 C0.32660767,0.060880735 -0.00339221046,0.434413719 0,0.875860843 L0,33.9097212 C-0.00339221046,34.2459008 0.189107811,34.5515179 0.495044777,34.6975353 L11.0550339,39.913408 C11.2990964,40.028864 11.5809706,40.028864 11.8250331,39.913408 L22.0275226,34.8605314 L33.0825112,39.913408 C33.330011,40.0220721 33.6153234,40.0118846 33.8525104,39.886242 L43.5325005,34.6703693 C43.8178129,34.5209563 43.9965627,34.2289222 44,33.9097212 L44,0.875860843 C43.9965627,0.573639271 43.8350002,0.291791766 43.5703132,0.13558768 C43.3056262,-0.0206172759 42.9790638,-0.0274083421 42.7075013,0.115212742 L33.4125109,5.11375741 L22.3575223,0.0880467386 C22.1237725,-0.0206172759 21.8487728,-0.0206172759 21.615023,0.0880467386 L11.4400335,5.11375741 L1.26504398,0.0880467386 C1.11035686,0.0133406633 0.9384816,-0.0138253403 0.770044494,0.00654872776 Z M22.8800217,2.20699502 L32.5600118,6.63505361 L32.5600118,37.7672938 L22.8800217,33.3664012 L22.8800217,2.20699502 Z M1.76004347,2.28849303 L10.5600344,6.63505361 L10.5600344,37.7129617 L1.76004347,33.3664012 L1.76004347,2.28849303 Z M21.1200235,2.28849303 L21.1200235,33.3664012 L12.3200326,37.7129617 L12.3200326,6.63505361 L21.1200235,2.28849303 Z M42.2400018,2.34282504 L42.2400018,33.3935672 L34.32001,37.6586297 L34.32001,6.60788761 L42.2400018,2.34282504 Z" id="Shape"></path>
                </g>
            </g>
        </g>
    </g>
</svg>