<?xml version="1.0" encoding="UTF-8"?>
<svg width="50px" height="50px" viewBox="0 0 50 50" version="1.1" xmlns="http://www.w3.org/2000/svg" xmlns:xlink="http://www.w3.org/1999/xlink">
    <!-- Generator: Sketch 58 (84663) - https://sketch.com -->
    <title>loan-setting</title>
    <desc>Created with Sketch.</desc>
    <g id="08_settings" stroke="none" stroke-width="1" fill="none" fill-rule="evenodd">
        <g id="08_settings_04_loans" transform="translate(-857.000000, -1000.000000)" fill="#313670">
            <g id="white-card" transform="translate(0.000000, 720.000000)">
                <g id="sallieMae-1" transform="translate(148.000000, 113.000000)">
                    <path d="M757.170946,188.359302 L752.217871,187.533015 C751.857881,186.061251 751.332993,184.654384 750.649396,183.342216 L753.820214,179.410737 C754.494602,178.579875 754.463967,177.384394 753.752969,176.582495 L751.783045,174.365471 C751.068981,173.56441 749.884831,173.394989 748.98159,173.965637 L744.74576,176.628365 C742.882702,175.326688 740.772318,174.365471 738.495754,173.807713 L737.66707,168.828072 C737.493186,167.773662 736.580743,167 735.509648,167 L732.541006,167 C731.472087,167 730.556572,167.773662 730.386539,168.828072 L729.553334,173.809275 C727.671133,174.270101 725.9064,175.013965 724.295907,175.993653 L720.267554,173.11876 C719.399362,172.498502 718.206894,172.595489 717.449248,173.351517 L715.35198,175.450293 C714.595953,176.207939 714.498966,177.400407 715.120842,178.268601 L718.00243,182.304657 C717.031949,183.902985 716.295732,185.657675 715.834961,187.523134 L710.826976,188.359352 C709.774192,188.533242 708.999023,189.445743 708.999023,190.516894 L708.999023,193.483194 C708.999023,194.554234 709.774192,195.466847 710.826983,195.640732 L715.834967,196.476947 C716.213372,198.011994 716.762703,199.478293 717.492838,200.837837 L714.336473,204.747105 C713.664375,205.577187 713.692611,206.77345 714.403605,207.574623 L716.372022,209.791703 C717.086141,210.594271 718.270908,210.760618 719.174257,210.191424 L723.471138,207.492202 C725.289275,208.735785 727.346142,209.649796 729.553342,210.191424 L730.386546,215.171901 C730.556634,216.226368 731.472094,217.000031 732.541012,217.000031 L735.509654,217.000031 C736.580749,217.000031 737.493192,216.226424 737.667079,215.171961 L738.497158,210.191483 C740.355863,209.736851 742.098221,209.005934 743.694371,208.043041 L747.890578,211.03998 C748.757211,211.66247 749.950568,211.564814 750.707435,210.806386 L752.805543,208.708337 C753.560676,207.952976 753.662964,206.761177 753.035844,205.891423 L750.04834,201.702853 C751.021612,200.099171 751.761733,198.341354 752.219603,196.467577 L757.172621,195.640568 C758.228483,195.466686 759.000526,194.554127 759.000526,193.483033 L759.000526,190.516732 C758.998962,189.445743 758.226921,188.533242 757.170946,188.359302 L757.170946,188.359302 Z M734.078257,201.375037 C728.901689,201.375037 724.703248,197.175813 724.703248,192.000024 C724.703248,186.823454 728.901689,182.62501 734.078257,182.62501 C739.253933,182.62501 743.453156,186.823454 743.453156,192.000024 C743.453156,197.175813 739.253933,201.375037 734.078257,201.375037 L734.078257,201.375037 Z" id="loan-setting"></path>
                </g>
            </g>
        </g>
    </g>
</svg>