<?xml version="1.0" encoding="UTF-8"?>
<svg width="80px" height="80px" viewBox="0 0 80 80" version="1.1" xmlns="http://www.w3.org/2000/svg" xmlns:xlink="http://www.w3.org/1999/xlink">
    <!-- Generator: Sketch 58 (84663) - https://sketch.com -->
    <title>help</title>
    <desc>Created with Sketch.</desc>
    <g id="08_settings" stroke="none" stroke-width="1" fill="none" fill-rule="evenodd">
        <g id="08_settings_01" transform="translate(-985.000000, -126.000000)">
            <g id="Help-and-onboarding" transform="translate(730.000000, 126.000000)">
                <g id="help" transform="translate(255.500000, 0.000000)">
                    <ellipse id="help-BG" fill-opacity="0.109803922" fill="#FFFFFF" cx="39.4366455" cy="40.000061" rx="39.4366455" ry="40.000061"></ellipse>
                    <path d="M54.7921713,31.6377934 C53.325142,29.8090344 51.3324481,28.3645393 48.8146125,27.3044396 C46.2968376,26.2444704 43.5461295,25.7143555 40.5634518,25.7143555 C38.3385953,25.7143555 36.2116156,26.0273565 34.1825097,26.6534888 C32.1534043,27.2795559 30.4054645,28.1257986 28.938561,29.1920212 C27.4714012,30.2583745 26.3042882,31.5261421 25.4362587,32.9952597 C24.5682279,34.4644425 24.1342773,36.0050852 24.1342773,37.6169266 C24.1342773,39.4766278 24.6872319,41.2192059 25.7935905,42.8434263 C26.8999492,44.4674492 28.4124499,45.8314954 30.3317999,46.9349774 C30.1971894,47.4307636 30.0383037,47.9020572 29.8548842,48.3480751 C29.6715293,48.7944182 29.5065424,49.1606399 29.3598585,49.4457613 C29.2130458,49.7308827 29.0145988,50.0472051 28.7638107,50.3943402 C28.5134073,50.7414106 28.3239518,50.9864041 28.1955713,51.1288013 C28.067319,51.2714591 27.8564771,51.5073996 27.5629169,51.8355127 C27.2697417,52.1643427 27.0801573,52.3780705 26.9946772,52.4774743 C26.9822823,52.4832718 26.9334734,52.539488 26.8479291,52.6446893 C26.7624493,52.7498923 26.7195486,52.8025261 26.7195486,52.8025261 L26.6095357,52.9696781 C26.5483319,53.0628945 26.5208446,53.1217174 26.5268816,53.1460142 C26.5330469,53.1703109 26.5208446,53.2327162 26.4902748,53.3317301 C26.4596408,53.4311356 26.4627876,53.5055922 26.4993944,53.5553588 L26.4993944,53.5738597 C26.5485245,53.7972262 26.6554546,53.9768858 26.8203778,54.1130292 C26.9853008,54.2493038 27.171931,54.3051948 27.3796261,54.2799854 C28.1743779,54.1808405 28.8710617,54.0450869 29.4699355,53.8711618 C32.6727053,53.0400961 35.4842965,51.5402964 37.9045158,49.3701367 C38.821098,49.4692799 39.7073669,49.5190482 40.563065,49.5190482 C43.5456791,49.5190482 46.2962599,48.9889334 48.8142894,47.9285095 C51.3323208,46.8685386 53.3248189,45.4239794 54.7915936,43.5955456 C56.2586248,41.7675663 56.9920425,39.7741973 56.9920425,37.616867 C56.9920425,35.4594669 56.2587541,33.4662273 54.7921713,31.6377934 L54.7921713,31.6377934 Z" fill="#EFEFF8"></path>
                </g>
            </g>
        </g>
    </g>
</svg>