<?xml version="1.0" encoding="UTF-8"?>
<svg width="62px" height="60px" viewBox="0 0 62 60" version="1.1" xmlns="http://www.w3.org/2000/svg" xmlns:xlink="http://www.w3.org/1999/xlink">
    <!-- Generator: Sketch 58 (84663) - https://sketch.com -->
    <title>home</title>
    <desc>Created with Sketch.</desc>
    <g id="08_settings" stroke="none" stroke-width="1" fill="none" fill-rule="evenodd">
        <g id="08_settings_01" transform="translate(-99.000000, -2326.000000)" fill="#9EA1CA">
            <g id="menu" transform="translate(10.000000, 2119.000000)">
                <path d="M149.721832,236.271738 C150.827093,235.05617 150.720362,233.19306 149.483526,232.11145 L122.234357,208.268311 C120.997518,207.1867 119.014564,207.209357 117.803763,208.31939 L90.4619652,233.382669 C89.2511645,234.492704 89.1917376,236.353425 90.3303909,237.536996 L91.0158885,238.250915 C92.1531506,239.434484 93.9914133,239.575599 95.1191355,238.56514 L97.1625105,236.735226 L97.1625105,263.525466 C97.1625105,265.169147 98.4943513,266.499794 100.136843,266.499794 L110.79475,266.499794 C112.437242,266.499794 113.769082,265.169147 113.769082,263.525466 L113.769082,244.783111 L127.363365,244.783111 L127.363365,263.525466 C127.33971,265.167956 128.514936,266.498607 130.157428,266.498607 L141.452135,266.498607 C143.094626,266.498607 144.426465,265.167956 144.426465,263.524275 L144.426465,237.11246 C144.426465,237.11246 144.990923,237.606958 145.68715,238.218917 C146.382187,238.829682 147.842025,238.339953 148.947286,237.123194 L149.721832,236.271738 L149.721832,236.271738 Z" id="home"></path>
            </g>
        </g>
    </g>
</svg>