<?xml version="1.0" encoding="UTF-8"?>
<svg width="71px" height="70px" viewBox="0 0 71 70" version="1.1" xmlns="http://www.w3.org/2000/svg" xmlns:xlink="http://www.w3.org/1999/xlink">
    <!-- Generator: Sketch 58 (84663) - https://sketch.com -->
    <title>in app help</title>
    <desc>Created with Sketch.</desc>
    <g id="08_settings" stroke="none" stroke-width="1" fill="none" fill-rule="evenodd">
        <g id="08_settings_01" transform="translate(-896.000000, -131.000000)">
            <g id="Help-and-onboarding" transform="translate(730.000000, 126.000000)">
                <g id="in-app-help" transform="translate(166.500000, 5.000000)">
                    <ellipse id="in-app-help-BG" fill-opacity="0.109803922" fill="#FFFFFF" cx="35" cy="35.0000534" rx="35" ry="35.0000534"></ellipse>
                    <path d="M34.4867966,16.0447998 C41.0441747,16.0447998 47.5,19.0647715 47.5,26.2882827 C47.5,32.9496307 39.8666537,35.5114071 38.2273084,37.9184372 C36.9965917,39.7088991 37.4076372,42.2247391 34.026186,42.2247391 C31.8234673,42.2247391 30.7474969,40.4330662 30.7474969,38.7937225 C30.7474969,32.6933322 39.7106966,31.3127042 39.7106966,26.2894913 C39.7106966,23.5246096 37.8706655,21.8852651 34.7950815,21.8852651 C28.2377044,21.8852651 30.7982734,28.6457467 25.8318825,28.6457467 C24.0390011,28.6457467 22.5,27.5697755 22.5,25.5218041 C22.4987906,20.4973846 28.2352856,16.0447998 34.4867966,16.0447998 L34.4867966,16.0447998 Z M34.2316899,45.5505829 C36.5335424,45.5505829 38.4328117,47.4438082 38.4328117,49.7529144 C38.4328117,52.0620204 36.5371673,53.955246 34.2316889,53.955246 C31.9262102,53.955246 30.0293579,52.0644395 30.0293579,49.7529144 C30.0293579,47.4450165 31.9262113,45.5505829 34.2316899,45.5505829 L34.2316899,45.5505829 Z" id="In-app-help" fill="#EFEFF8"></path>
                </g>
            </g>
        </g>
    </g>
</svg>