<?xml version="1.0" encoding="UTF-8"?>
<svg width="47px" height="61px" viewBox="0 0 47 61" version="1.1" xmlns="http://www.w3.org/2000/svg" xmlns:xlink="http://www.w3.org/1999/xlink">
    <!-- Generator: Sketch 58 (84663) - https://sketch.com -->
    <title>refresh</title>
    <desc>Created with Sketch.</desc>
    <g id="08_settings" stroke="none" stroke-width="1" fill="none" fill-rule="evenodd">
        <g id="08_settings_01" transform="translate(-340.000000, -2325.000000)" fill="#9EA1CA">
            <g id="menu" transform="translate(10.000000, 2119.000000)">
                <path d="M330.438171,238.600804 C330.071749,235.425141 330.377101,232.359406 331.207659,229.525738 C333.968043,220.108674 342.627832,213.183285 352.899881,213.061144 L352.899881,206.905243 C352.899881,206.563249 353.327376,206.380037 353.608299,206.587677 L366.274311,215.894813 C366.481952,216.053596 366.481952,216.371162 366.274311,216.517731 L353.620512,225.824867 C353.327376,226.032506 352.912095,225.849295 352.912095,225.5073 L352.912095,219.363613 C346.157704,219.47354 340.392654,223.638544 337.913193,229.525735 C336.972709,231.748699 336.496359,234.20373 336.630714,236.780903 C336.813925,240.322988 338.145261,243.584152 340.246085,246.222392 C341.369781,247.627012 341.101071,249.678978 339.647596,250.741604 C338.267403,251.75537 336.337577,251.474449 335.274951,250.1309 C332.67335,246.88196 330.938949,242.924591 330.438171,238.600804 L330.438171,238.600804 Z M367.00714,226.77759 C369.120175,229.403619 370.451515,232.676995 370.622512,236.219081 C370.756868,238.808468 370.268302,241.263501 369.340031,243.474251 C366.860573,249.361444 361.095522,253.538659 354.341131,253.636374 L354.341131,247.492691 C354.341131,247.150696 353.913638,246.967485 353.632714,247.175122 L340.966705,256.482257 C340.759066,256.641037 340.759066,256.958604 340.966705,257.105175 L353.620499,266.412308 C353.913637,266.61995 354.328916,266.436736 354.328916,266.094741 L354.328916,259.938841 C364.600964,259.828914 373.272967,252.903526 376.021137,243.474251 C376.851696,240.640581 377.144834,237.574846 376.790623,234.399183 C376.30206,230.075394 374.567657,226.11803 371.966061,222.869082 C370.891223,221.525532 368.97361,221.244607 367.59342,222.258377 C366.152154,223.321002 365.883443,225.37297 367.00714,226.77759 L367.00714,226.77759 Z" id="refresh"></path>
            </g>
        </g>
    </g>
</svg>