<?xml version="1.0" encoding="UTF-8"?>
<svg width="60px" height="61px" viewBox="0 0 60 61" version="1.1" xmlns="http://www.w3.org/2000/svg" xmlns:xlink="http://www.w3.org/1999/xlink">
    <!-- Generator: Sketch 58 (84663) - https://sketch.com -->
    <title>settings-full</title>
    <desc>Created with Sketch.</desc>
    <g id="08_settings" stroke="none" stroke-width="1" fill="none" fill-rule="evenodd">
        <g id="08_settings_01" transform="translate(-550.000000, -2325.000000)" fill="#9EA1CA">
            <g id="menu" transform="translate(10.000000, 2119.000000)">
                <g id="settings-full" transform="translate(540.000000, 206.500000)">
                    <path d="M28.6048479,17.5 L28.6048479,20.4253233 C25.2809779,21.0907634 23.419611,23.2182714 23.419611,25.8776571 C23.419611,28.8029823 25.6804361,30.3986135 28.8713518,31.4617741 C31.1315826,32.2613704 32.0616738,32.9256225 32.0616738,34.121159 C32.0616738,35.3166941 30.8644881,35.9833229 29.1372628,35.9833229 C27.1429401,35.9833229 25.4145286,35.3178832 24.0843866,34.6536282 L23.1542969,38.2449839 C24.3508905,38.9092389 26.3452116,39.4417065 28.3389394,39.5728964 L28.3389394,42.5 L31.3969001,42.5 L31.3969001,39.3081445 C34.8531301,38.6438954 36.8480453,36.3822284 36.8480453,33.7234366 C36.8480453,30.9316757 35.3855421,29.3342631 31.7957628,28.006352 C29.1372603,27.0755666 28.0736219,26.4107208 28.0736219,25.3475602 C28.0736219,24.5491508 28.7378022,23.6189596 30.7321248,23.6189596 C32.9929485,23.6189596 34.3219041,24.2843996 35.120227,24.6833082 L36.0503183,21.2261076 C34.9866794,20.6942304 33.6571304,20.2953222 31.6622152,20.1617603 L31.6622152,17.5029687 L28.6048479,17.5 L28.6048479,17.5 L28.6048479,17.5 Z" id="Shape-copy"></path>
                    <path d="M57.8063073,25.6311464 L51.8626181,24.6396035 C51.4306299,22.8734869 50.800764,21.1852473 49.9804482,19.6106476 L53.7854299,14.8928753 C54.5946946,13.8958418 54.5579329,12.461265 53.7047359,11.4989868 L51.3408269,8.83855999 C50.4839498,7.87728667 49.0629693,7.67398238 47.9790811,8.35875928 L42.8960849,11.5540311 C40.6604143,9.99201983 38.1279538,8.83855999 35.3960775,8.16925049 L34.4016562,2.19368532 C34.1929955,0.928393789 33.0980634,0 31.8127495,0 L28.2503791,0 C26.967676,0 25.8690585,0.9283939 25.6650185,2.19368532 L24.6651735,8.17112535 C22.4065318,8.72411638 20.2888516,9.61675197 18.3562601,10.7923776 L13.5222368,7.34250784 C12.480406,6.59819841 11.0494447,6.71458304 10.1402692,7.6218152 L7.62354828,10.1403451 C6.71631521,11.0495201 6.59993111,12.4804813 7.34618209,13.5223129 L10.8040876,18.3655769 C9.63951071,20.2835691 8.75605032,22.3891962 8.20312492,24.6277463 L2.19354342,25.6312072 C0.930201798,25.8398741 0,26.9348752 0,28.220256 L0,31.7798138 C0,33.0650604 0.930201798,34.1601956 2.19355124,34.3688571 L8.20313296,35.3723145 C8.65721868,37.2143698 9.31641551,38.9739275 10.1925774,40.6053793 L6.40493982,45.2964985 C5.59842137,46.2925959 5.63230494,47.7281106 6.48549792,48.689518 L8.84759866,51.3500118 C9.70454103,52.3130929 11.1262619,52.5127101 12.2102806,51.8296766 L17.3665382,48.5906124 C19.5483018,50.0829113 22.016543,51.1797237 24.6651825,51.8296766 L25.6650274,57.8062463 C25.8691336,59.0716052 26.967685,60 28.2503863,60 L31.8127567,60 C33.0980705,60 34.1930026,59.0716732 34.4016669,57.8063178 L35.397762,51.8297482 C37.6282075,51.2841904 39.7190379,50.4070902 41.6344181,49.2516196 L46.6698662,52.8479433 C47.7098257,53.5949314 49.1418536,53.4777439 50.0500948,52.567631 L52.5678242,50.0499737 C53.4739839,49.1435409 53.5967291,47.7133834 52.8441859,46.6696787 L49.2591806,41.6433978 C50.4271067,39.7189808 51.3152522,37.6096022 51.8646959,35.3610706 L57.8083173,34.3686604 C59.0753522,34.1600025 60.0018044,33.0649316 60.0018044,31.7796206 L60.0018044,28.2200611 C59.9999267,26.9348752 59.0734782,25.8398741 57.8063073,25.6311464 L57.8063073,25.6311464 Z" id="settings_1_-copy"></path>
                </g>
            </g>
        </g>
    </g>
</svg>