<?xml version="1.0" encoding="UTF-8"?>
<svg width="60px" height="61px" viewBox="0 0 60 61" version="1.1" xmlns="http://www.w3.org/2000/svg" xmlns:xlink="http://www.w3.org/1999/xlink">
    <!-- Generator: Sketch 58 (84663) - https://sketch.com -->
    <title>settings_1_</title>
    <desc>Created with Sketch.</desc>
    <g id="08_settings" stroke="none" stroke-width="1" fill="none" fill-rule="evenodd">
        <g id="08_settings_01" transform="translate(-983.000000, -2317.000000)" fill="#373FA3">
            <g id="menu" transform="translate(10.000000, 2119.000000)">
                <path d="M1030.80631,224.402143 L1024.86262,223.4106 C1024.43063,221.644483 1023.80076,219.956243 1022.98045,218.381644 L1026.78543,213.663871 C1027.59469,212.666838 1027.55793,211.232261 1026.70474,210.269983 L1024.34083,207.609556 C1023.48395,206.648283 1022.06297,206.444978 1020.97908,207.129755 L1015.89608,210.325027 C1013.66041,208.763016 1011.12795,207.609556 1008.39608,206.940247 L1007.40166,200.964681 C1007.193,199.69939 1006.09806,198.770996 1004.81275,198.770996 L1001.25038,198.770996 C999.967676,198.770996 998.869058,199.69939 998.665018,200.964681 L997.665174,206.942121 C995.406532,207.495112 993.288852,208.387748 991.35626,209.563374 L986.522237,206.113504 C985.480406,205.369195 984.049445,205.485579 983.140269,206.392811 L980.623548,208.911341 C979.716315,209.820516 979.599931,211.251477 980.346182,212.293309 L983.804088,217.136573 C982.639511,219.054565 981.75605,221.160192 981.203125,223.398742 L975.193543,224.402203 C973.930202,224.61087 973,225.705871 973,226.991252 L973,230.55081 C973,231.836056 973.930202,232.931192 975.193551,233.139853 L981.203133,234.143311 C981.657219,235.985366 982.316416,237.744924 983.192577,239.376375 L979.40494,244.067495 C978.598421,245.063592 978.632305,246.499107 979.485498,247.460514 L981.847599,250.121008 C982.704541,251.084089 984.126262,251.283706 985.210281,250.600673 L990.366538,247.361609 C992.548302,248.853907 995.016543,249.95072 997.665182,250.600673 L998.665027,256.577242 C998.869134,257.842601 999.967685,258.770996 1001.25039,258.770996 L1004.81276,258.770996 C1006.09807,258.770996 1007.193,257.842669 1007.40167,256.577314 L1008.39776,250.600744 C1010.62821,250.055187 1012.71904,249.178086 1014.63442,248.022616 L1019.66987,251.618939 C1020.70983,252.365927 1022.14185,252.24874 1023.05009,251.338627 L1025.56782,248.82097 C1026.47398,247.914537 1026.59673,246.48438 1025.84419,245.440675 L1022.25918,240.414394 C1023.42711,238.489977 1024.31525,236.380598 1024.8647,234.132067 L1030.80832,233.139657 C1032.07535,232.930999 1033.0018,231.835928 1033.0018,230.550617 L1033.0018,226.991057 C1032.99993,225.705871 1032.07348,224.61087 1030.80631,224.402143 L1030.80631,224.402143 Z M1003.09511,240.021019 C996.883223,240.021019 991.845093,234.981952 991.845093,228.771008 C991.845093,222.559126 996.883223,217.520996 1003.09511,217.520996 C1009.30592,217.520996 1014.34499,222.559126 1014.34499,228.771008 C1014.34499,234.981952 1009.30592,240.021019 1003.09511,240.021019 L1003.09511,240.021019 Z" id="settings_1_"></path>
            </g>
        </g>
    </g>
</svg>