<?xml version="1.0" encoding="UTF-8"?>
<svg width="76px" height="61px" viewBox="0 0 76 61" version="1.1" xmlns="http://www.w3.org/2000/svg" xmlns:xlink="http://www.w3.org/1999/xlink">
    <!-- Generator: Sketch 58 (84663) - https://sketch.com -->
    <title>users</title>
    <desc>Created with Sketch.</desc>
    <g id="08_settings" stroke="none" stroke-width="1" fill="none" fill-rule="evenodd">
        <g id="08_settings_01" transform="translate(-758.000000, -2325.000000)" fill="#9EA1CA">
            <g id="menu" transform="translate(10.000000, 2119.000000)">
                <g id="users" transform="translate(748.663086, 206.500000)">
                    <path d="M61.7855282,32.7313194 C58.0664809,32.7313194 55.0516548,35.7461455 55.0516548,39.465192 C55.0594531,43.1810502 58.0696716,46.1912683 61.7855282,46.1990662 C65.5045756,46.1990662 68.5194016,43.1842395 68.5194016,39.465192 C68.5194016,35.7461449 65.5045756,32.7313194 61.7855282,32.7313194 L61.7855282,32.7313194 Z M61.7855091,43.3637352 C59.6324432,43.3637352 57.8869514,41.6182449 57.8869514,39.4651775 C57.8869514,37.3121102 59.6324432,35.5666199 61.7855091,35.5666199 C63.9385751,35.5666199 65.6840668,37.3121102 65.6840668,39.4651775 C65.6840668,41.6182449 63.9385751,43.3637352 61.7855091,43.3637352 L61.7855091,43.3637352 Z M61.7854214,47.4395981 C53.4779483,47.4395981 48.3176765,51.6925685 48.3176765,58.5823812 C48.3176765,59.3652825 48.9524328,60.0000381 49.7353339,60.0000381 L73.8355094,60.0000381 C74.6184107,60.0000381 75.2531662,59.3652825 75.2531662,58.5823812 C75.2531662,51.7067455 70.0928941,47.4395981 61.7854214,47.4395981 L61.7854214,47.4395981 Z M13.4677448,47.4395981 C21.7752175,47.4395981 26.9354897,51.7067455 26.9354897,58.5823812 C26.9354897,59.3192295 26.3732149,59.9248484 25.654355,59.993548 L25.5178329,60.0000381 L1.41765736,60.0000381 C0.634756235,60.0000381 0,59.3652825 0,58.5823812 C0,51.6925685 5.16027174,47.4395981 13.4677448,47.4395981 Z M61.7854214,47.4395981 C70.0928941,47.4395981 75.2531662,51.7067455 75.2531662,58.5823812 C75.2531662,59.3192295 74.6908914,59.9248484 73.9720316,59.993548 L73.8355094,60.0000381 L49.7353339,60.0000381 C48.9524328,60.0000381 48.3176765,59.3652825 48.3176765,58.5823812 C48.3176765,51.6925685 53.4779483,47.4395981 61.7854214,47.4395981 Z M13.4676633,32.7313194 L13.7040707,32.7353915 C17.313637,32.8599287 20.2015376,35.8252736 20.2015376,39.465192 C20.2015376,43.1051108 17.313637,46.0704569 13.7040707,46.194994 L13.4676633,46.1990662 C9.75180619,46.1912683 6.74158721,43.1810502 6.73378897,39.465192 C6.73378897,35.7461455 9.7486155,32.7313194 13.4676633,32.7313194 Z M61.7855282,32.7313194 C65.5045756,32.7313194 68.5194016,35.7461449 68.5194016,39.465192 C68.5194016,43.1842395 65.5045756,46.1990662 61.7855282,46.1990662 C58.0696716,46.1912683 55.0594531,43.1810502 55.0516548,39.465192 C55.0516548,35.7461455 58.0664809,32.7313194 61.7855282,32.7313194 Z M37.6265841,14.7082787 C45.9340573,14.7082787 51.0943298,18.975426 51.0943298,25.8510618 C51.0943298,26.5879101 50.532055,27.193529 49.8131951,27.2622286 L49.676673,27.2687187 L25.5764957,27.2687187 C24.7935946,27.2687187 24.1588383,26.6339631 24.1588383,25.8510618 C24.1588383,18.961249 29.3191104,14.7082787 37.6265841,14.7082787 Z M37.6266909,0 L37.8630983,0.00407212075 C41.4726645,0.128609244 44.3605652,3.09395417 44.3605652,6.73387256 C44.3605652,10.3737914 41.4726645,13.3391374 37.8630983,13.4636746 L37.6266909,13.4677467 C33.9108338,13.4599489 30.9006148,10.4497307 30.8928165,6.73387256 C30.8928165,3.01482611 33.9076431,0 37.6266909,0 Z" id="Shape-copy"></path>
                    <path d="M44.8970897,45.0389549 L38.9854541,39.0989739 L38.9854541,30.7347957 C38.9854541,29.9518947 38.3506975,29.3171387 37.5677957,29.3171387 C36.7848939,29.3171387 36.1501373,29.9518947 36.1501373,30.7347957 L36.1501373,39.0989739 L30.2385019,45.0106013 C29.6787046,45.5625991 29.6723232,46.4638743 30.2243249,47.0236714 C30.7763267,47.5834673 31.6776027,47.5898491 32.2374,47.0378513 L37.5677957,41.6932837 L42.898192,47.0378513 C43.4928996,47.5471434 44.3877973,47.4778563 44.8970897,46.8831517 C45.3516274,46.3524118 45.3516274,45.5696896 44.8970897,45.0389549 L44.8970897,45.0389549 Z" id="Shape"></path>
                </g>
            </g>
        </g>
    </g>
</svg>