<?xml version="1.0" encoding="UTF-8"?>
<svg width="60px" height="60px" viewBox="0 0 60 60" version="1.1" xmlns="http://www.w3.org/2000/svg" xmlns:xlink="http://www.w3.org/1999/xlink">
    <!-- Generator: Sketch 58 (84663) - https://sketch.com -->
    <title>image, logo, illustration</title>
    <desc>Created with Sketch.</desc>
    <defs>
        <path d="M22,0 C38.7694822,0 44,6.03308615 44,22 C44,37.9669138 38.7694822,44 22,44 C5.23051777,44 0,37.9669138 0,22 C0,6.03308615 5.23051777,0 22,0 Z" id="path-1"></path>
        <filter x="-31.8%" y="-22.7%" width="163.6%" height="163.6%" filterUnits="objectBoundingBox" id="filter-2">
            <feOffset dx="0" dy="4" in="SourceAlpha" result="shadowOffsetOuter1"></feOffset>
            <feGaussianBlur stdDeviation="4" in="shadowOffsetOuter1" result="shadowBlurOuter1"></feGaussianBlur>
            <feColorMatrix values="0 0 0 0 0.164705882   0 0 0 0 0.215686275   0 0 0 0 0.278431373  0 0 0 0.15 0" type="matrix" in="shadowBlurOuter1"></feColorMatrix>
        </filter>
    </defs>
    <g id="Screens" stroke="none" stroke-width="1" fill="none" fill-rule="evenodd">
        <g id="home" transform="translate(-12.000000, -649.000000)">
            <g id="content" transform="translate(-27.000000, 44.000000)">
                <g id="list" transform="translate(39.000000, 362.000000)">
                    <g id="Yesterday" transform="translate(0.000000, 129.000000)">
                        <g id="content/list-item" transform="translate(0.000000, 114.000000)">
                            <g id="image,-logo,-illustration" transform="translate(8.000000, 4.000000)">
                                <g id="base">
                                    <use fill="black" fill-opacity="1" filter="url(#filter-2)" xlink:href="#path-1"></use>
                                    <use fill="#FFFFFF" fill-rule="evenodd" xlink:href="#path-1"></use>
                                </g>
                                <g id="icon" transform="translate(13.000000, 12.000000)" fill="#8F9FB3">
                                    <path d="M3.82842712,10.7928932 C4.21895142,10.4023689 4.8521164,10.4023689 5.24264069,10.7928932 C5.63316498,11.1834175 5.63316498,11.8165825 5.24264069,12.2071068 L5.24264069,12.2071068 L3.449,14 L9.58578644,14 C10.1380712,14 10.5857864,14.4477153 10.5857864,15 C10.5857864,15.5522847 10.1380712,16 9.58578644,16 L9.58578644,16 L3.379,16 L5.24264069,17.863961 C5.63316498,18.2544853 5.63316498,18.8876503 5.24264069,19.2781746 C4.8521164,19.6686989 4.21895142,19.6686989 3.82842712,19.2781746 L3.82842712,19.2781746 L0.292893219,15.7426407 C-0.0976310729,15.3521164 -0.0976310729,14.7189514 0.292893219,14.3284271 L0.292893219,14.3284271 Z M17,14 C17.5522847,14 18,14.4477153 18,15 C18,15.5522847 17.5522847,16 17,16 C16.4477153,16 16,15.5522847 16,15 C16,14.4477153 16.4477153,14 17,14 Z M13.2928932,14 C13.845178,14 14.2928932,14.4477153 14.2928932,15 C14.2928932,15.5522847 13.845178,16 13.2928932,16 C12.7406085,16 12.2928932,15.5522847 12.2928932,15 C12.2928932,14.4477153 12.7406085,14 13.2928932,14 Z M14.1715729,0.792893219 L17.7071068,4.32842712 C18.0976311,4.71895142 18.0976311,5.3521164 17.7071068,5.74264069 L14.1715729,9.27817459 C13.7810486,9.66869888 13.1478836,9.66869888 12.7573593,9.27817459 C12.366835,8.8876503 12.366835,8.25448532 12.7573593,7.86396103 L14.621,6 L8.41421356,6 C7.86192881,6 7.41421356,5.55228475 7.41421356,5 C7.41421356,4.44771525 7.86192881,4 8.41421356,4 L14.551,4 L12.7573593,2.20710678 C12.366835,1.81658249 12.366835,1.18341751 12.7573593,0.792893219 C13.1478836,0.402368927 13.7810486,0.402368927 14.1715729,0.792893219 Z M1,4 C1.55228475,4 2,4.44771525 2,5 C2,5.55228475 1.55228475,6 1,6 C0.44771525,6 0,5.55228475 0,5 C0,4.44771525 0.44771525,4 1,4 Z M4.70710678,4 C5.25939153,4 5.70710678,4.44771525 5.70710678,5 C5.70710678,5.55228475 5.25939153,6 4.70710678,6 C4.15482203,6 3.70710678,5.55228475 3.70710678,5 C3.70710678,4.44771525 4.15482203,4 4.70710678,4 Z" id="exchange"></path>
                                </g>
                            </g>
                        </g>
                    </g>
                </g>
            </g>
        </g>
    </g>
</svg>