<?xml version="1.0" encoding="UTF-8"?>
<svg width="41px" height="40px" viewBox="0 0 41 40" version="1.1" xmlns="http://www.w3.org/2000/svg" xmlns:xlink="http://www.w3.org/1999/xlink">
    <!-- Generator: Sketch 58 (84663) - https://sketch.com -->
    <title>email icon</title>
    <desc>Created with Sketch.</desc>
    <g id="08_settings" stroke="none" stroke-width="1" fill="none" fill-rule="evenodd">
        <g id="08_settings_02_details" transform="translate(-199.000000, -940.000000)" fill="#A4A4A4">
            <g id="email" transform="translate(153.500000, 841.500000)">
                <path d="M80.3492191,103.54284 C76.7017269,100.180946 72.1648057,98.5 66.7466088,98.5 C61.0509744,98.5 56.1958138,100.409425 52.1892864,104.236434 C48.1827594,108.063444 46.175415,112.820685 46.175415,118.51632 C46.175415,123.975316 48.0848396,128.667279 51.8955288,132.600368 C55.722538,136.533457 60.8632963,138.5 67.3341228,138.5 C71.2345724,138.5 75.0615834,137.700327 78.8151533,136.092819 C80.0391413,135.570584 80.6348157,134.167074 80.1370634,132.934924 L80.1370634,132.934924 C79.6229881,131.661974 78.1705214,131.074461 76.9057316,131.613012 C73.6417559,133.016523 70.4430608,133.718275 67.3259648,133.718275 C62.3647264,133.718275 58.5213983,132.208687 55.7959796,129.18135 C53.0787214,126.162175 51.7160123,122.612604 51.7160123,118.540798 C51.7160123,114.118113 53.1766406,110.429823 56.0897372,107.467766 C58.9946741,104.51387 62.5768844,103.028762 66.8200498,103.028762 C70.7286598,103.028762 74.0334327,104.244592 76.7262104,106.676253 C79.4189905,109.107914 80.7653793,112.167889 80.7653793,115.856179 C80.7653793,118.377598 80.1452215,120.482863 78.9130731,122.155648 C77.6809201,123.836595 76.3998142,124.668907 75.0697414,124.668907 C74.3516661,124.668907 73.9926284,124.285389 73.9926284,123.510195 C73.9926284,122.881878 74.0415907,122.147485 74.1313477,121.298851 L75.6490998,108.887591 L70.42674,108.887591 L70.0921812,110.103421 C68.762113,109.018149 67.3014813,108.471433 65.7184569,108.471433 C63.2051968,108.471433 61.0509744,109.475106 59.2639476,111.47429 C57.4687629,113.473474 56.5793303,116.052012 56.5793303,119.201747 C56.5793303,122.278043 57.3708431,124.76682 58.9620302,126.65177 C60.5532174,128.544875 62.4626427,129.483267 64.6984641,129.483267 C66.6976489,129.483267 68.403073,128.642796 69.8229029,126.970008 C70.8918531,128.577517 72.4667184,129.37719 74.5475033,129.37719 C77.6074791,129.37719 80.2512993,128.047122 82.4789592,125.378822 C84.7066214,122.718683 85.8245316,119.503668 85.8245316,115.741938 C85.8245316,110.97654 84.0048692,106.904732 80.3492191,103.54284 L80.3492191,103.54284 Z M68.3214734,122.318877 C67.3994026,123.559188 66.2978107,124.187502 65.0167019,124.187502 C64.1435897,124.187502 63.4418352,123.730545 62.9114398,122.816634 C62.3728839,121.90272 62.1036072,120.76849 62.1036072,119.405783 C62.1036072,117.724836 62.4789645,116.370288 63.2296778,115.342135 C63.980391,114.313983 64.9106238,113.791748 66.0203738,113.791748 C66.9832456,113.791748 67.8400384,114.175265 68.5907504,114.950458 C69.3414624,115.725652 69.7168198,116.753804 69.7168198,118.043073 C69.7086617,119.650581 69.243547,121.070408 68.3214734,122.318877 L68.3214734,122.318877 Z" id="email-icon"></path>
            </g>
        </g>
    </g>
</svg>