<?xml version="1.0" encoding="UTF-8"?>
<svg width="33px" height="60px" viewBox="0 0 33 60" version="1.1" xmlns="http://www.w3.org/2000/svg" xmlns:xlink="http://www.w3.org/1999/xlink">
    <!-- Generator: Sketch 58 (84663) - https://sketch.com -->
    <title>fb shape</title>
    <desc>Created with Sketch.</desc>
    <g id="08_settings" stroke="none" stroke-width="1" fill="none" fill-rule="evenodd">
        <g id="08_settings_02_details" transform="translate(-195.000000, -1901.000000)" fill="#313670">
            <g id="social-connect" transform="translate(148.000000, 1794.000000)">
                <g id="facebook-connect" transform="translate(6.000000, 92.000000)">
                    <path d="M72.3717876,15.012484 L64.5908919,15 C55.849321,15 50.2001346,20.7956994 50.2001346,29.7660819 L50.2001346,36.5742338 L42.3767912,36.5742338 C41.7007614,36.5742338 41.1533203,37.1222806 41.1533203,37.7982903 L41.1533203,47.6625288 C41.1533203,48.3385348 41.7013852,48.8859594 42.37679,48.8859594 L50.2001346,48.8859594 L50.2001346,73.7765658 C50.2001346,74.4525754 50.7475742,75 51.4236045,75 L61.6308405,75 C62.3068698,75 62.8543103,74.4519532 62.8543103,73.7765658 L62.8543103,48.8859594 L72.0016233,48.8859594 C72.6776526,48.8859594 73.2250932,48.3385348 73.2250932,47.6625288 L73.2288366,37.7982903 C73.2288366,37.4737054 73.0996213,37.1628535 72.8705348,36.9331473 C72.6414483,36.7034411 72.3293397,36.574232 72.0047422,36.574232 L62.8543122,36.574232 L62.8543122,30.8028764 C62.8543122,28.0289295 63.5153621,26.620734 67.1289669,26.620734 L72.3705385,26.6188619 C73.0459452,26.6188619 73.5933838,26.0708141 73.5933838,25.3954285 L73.5933838,16.2359165 C73.5933838,15.561156 73.0465697,15.0137324 72.3717876,15.012484 L72.3717876,15.012484 Z" id="fb-shape"></path>
                </g>
            </g>
        </g>
    </g>
</svg>