<?xml version="1.0" encoding="UTF-8"?>
<svg width="31px" height="42px" viewBox="0 0 31 42" version="1.1" xmlns="http://www.w3.org/2000/svg" xmlns:xlink="http://www.w3.org/1999/xlink">
    <!-- Generator: Sketch 58 (84663) - https://sketch.com -->
    <title>name icon</title>
    <desc>Created with Sketch.</desc>
    <g id="08_settings" stroke="none" stroke-width="1" fill="none" fill-rule="evenodd">
        <g id="08_settings_02_details" transform="translate(-209.000000, -720.000000)" fill="#A4A4A4">
            <g id="name" transform="translate(152.500000, 622.750000)">
                <path d="M67,120.226255 C54.6631576,120.226255 47,126.542046 47,136.773627 C47,137.93626 47.9426316,138.878891 49.1052632,138.878891 L84.8947377,138.878891 C86.0573692,138.878891 87,137.93626 87,136.773627 C87,126.563103 79.3368406,120.226255 67,120.226255 L67,120.226255 Z M67,120.226255 C79.336843,120.226255 87,126.563103 87,136.773627 C87,137.88571 86.1375552,138.796507 85.0450783,138.873605 L84.8947377,138.878891 L49.1052632,138.878891 C47.9426318,138.878891 47,137.93626 47,136.773627 C47,126.542046 54.6631564,120.226255 67,120.226255 Z M67,98.1210327 L67.2799072,98.1248745 C72.673375,98.2730995 77,102.691747 77,108.121033 C77,113.550322 72.673375,117.968966 67.2799072,118.117191 L67,118.121033 C61.4818416,118.109457 57.0115786,113.639192 57,108.121033 C57,102.598139 61.4771054,98.1210327 67,98.1210327 Z" id="name-icon"></path>
            </g>
        </g>
    </g>
</svg>