<?xml version="1.0" encoding="UTF-8"?>
<svg width="31px" height="41px" viewBox="0 0 31 41" version="1.1" xmlns="http://www.w3.org/2000/svg" xmlns:xlink="http://www.w3.org/1999/xlink">
    <!-- Generator: Sketch 58 (84663) - https://sketch.com -->
    <title>pass icon</title>
    <desc>Created with Sketch.</desc>
    <g id="08_settings" stroke="none" stroke-width="1" fill="none" fill-rule="evenodd">
        <g id="08_settings_02_details" transform="translate(-204.000000, -1184.000000)" fill="#A4A4A4">
            <g id="password" transform="translate(148.000000, 1086.000000)">
                <path d="M84.6911383,114.653644 L83.9117372,114.653644 L83.9117372,111.00581 C83.9117372,104.258865 78.5575875,98.6227542 71.8655381,98.5024414 C71.6826857,98.4991542 71.3173097,98.4991542 71.1345407,98.5024414 C64.4423273,98.6227539 59.0882612,104.258864 59.0882612,111.00581 L59.0882612,114.653644 L58.3087779,114.653644 C57.1076263,114.653644 56.1278687,115.893092 56.1278687,117.423869 L56.1278687,135.719902 C56.1278687,137.248953 57.1076257,138.499992 58.3088601,138.499992 L84.6911383,138.499992 C85.8922913,138.499992 86.8721313,137.248956 86.8721313,135.719902 L86.8721313,117.423869 C86.8721313,115.893173 85.8923738,114.653644 84.6911383,114.653644 L84.6911383,114.653644 Z M73.9716701,126.553439 L73.9716701,132.081809 C73.9716701,132.714846 73.4416869,133.25058 72.8081577,133.25058 L70.1920202,133.25058 C69.5584072,133.25058 69.0284254,132.714844 69.0284254,132.081809 L69.0284254,126.553439 C68.4139606,125.948591 68.0562286,125.112239 68.0562286,124.187048 C68.0562286,122.433806 69.4114688,120.927274 71.134632,120.857666 C71.3172372,120.85027 71.6830234,120.85027 71.8656289,120.857666 C73.5887909,120.927272 74.9440308,122.433806 74.9440308,124.187048 C74.9438678,125.112239 74.5861361,125.948591 73.9716701,126.553439 L73.9716701,126.553439 Z M78.7747192,114.653711 L71.8655492,114.653711 L71.1345524,114.653711 L64.2254639,114.653711 L64.2254639,111.005877 C64.2254639,106.986834 67.4916501,103.663696 71.5000087,103.663696 C75.5083689,103.663696 78.7747192,106.986834 78.7747192,111.005877 L78.7747192,114.653711 L78.7747192,114.653711 Z" id="pass-icon"></path>
            </g>
        </g>
    </g>
</svg>