<?xml version="1.0" encoding="UTF-8"?>
<svg width="41px" height="41px" viewBox="0 0 41 41" version="1.1" xmlns="http://www.w3.org/2000/svg" xmlns:xlink="http://www.w3.org/1999/xlink">
    <!-- Generator: Sketch 58 (84663) - https://sketch.com -->
    <title>phone icon</title>
    <desc>Created with Sketch.</desc>
    <g id="08_settings" stroke="none" stroke-width="1" fill="none" fill-rule="evenodd">
        <g id="08_settings_02_details" transform="translate(-199.000000, -1671.000000)" fill="#A4A4A4">
            <g id="phone-icon" transform="translate(148.000000, 1573.000000)">
                <path d="M91.4809418,130.060117 C91.5657014,130.70948 91.3678146,131.274083 90.8881104,131.753926 L85.2561979,137.343284 C85.0021263,137.625586 84.6704906,137.86575 84.2611526,138.063151 C83.851817,138.260831 83.4496054,138.387866 83.0545227,138.444258 C83.0262933,138.444258 82.9413955,138.451523 82.8001747,138.46564 C82.6592327,138.479686 82.4757369,138.486881 82.2498947,138.486881 C81.7133839,138.486881 80.8452397,138.395136 79.6454575,138.211568 C78.4456776,138.028003 76.9777806,137.576251 75.2417639,136.856524 C73.5053351,136.136655 71.5363498,135.056712 69.3344696,133.617116 C67.1325871,132.177587 64.7894159,130.201338 62.3051633,127.688788 C60.3290545,125.740907 58.6917061,123.877717 57.3931198,122.099291 C56.0945338,120.320723 55.0500183,118.676316 54.2595743,117.166004 C53.4690616,115.65569 52.8762286,114.28653 52.4810067,113.058518 C52.0857847,111.830507 51.8175963,110.771876 51.6764457,109.882626 C51.5352949,108.993377 51.4788347,108.294682 51.5070648,107.786538 C51.535295,107.278396 51.54941,106.996095 51.54941,106.939635 C51.6058703,106.544413 51.7329059,106.142133 51.9305169,105.732796 C52.1281279,105.323459 52.368084,104.991755 52.6503855,104.737684 L58.2822984,99.1057723 C58.6775205,98.7105504 59.1292026,98.5129395 59.6373452,98.5129395 C60.0043367,98.5129395 60.3289836,98.6188025 60.6112846,98.8305285 C60.8935862,99.0422545 61.1335425,99.3033833 61.3311536,99.6139147 L65.8620908,108.209991 C66.1161613,108.661674 66.1867371,109.155701 66.073816,109.692073 C65.9608949,110.228445 65.7209391,110.680128 65.3539476,111.04712 L63.2790318,113.122035 C63.2225718,113.178495 63.173168,113.270243 63.1308239,113.397279 C63.0884787,113.524315 63.0673054,113.630177 63.0673054,113.714867 C63.1802266,114.307699 63.434297,114.985223 63.8295203,115.747438 C64.1682813,116.424961 64.6905392,117.250695 65.3962929,118.224633 C66.1020454,119.198572 67.1042159,120.320651 68.4028022,121.591007 C69.6731591,122.88973 70.8023655,123.89882 71.790419,124.618828 C72.7782688,125.338419 73.6042761,125.867944 74.2676834,126.206705 C74.931093,126.545465 75.4392362,126.750136 75.792044,126.820502 L76.321221,126.926436 C76.3776822,126.926436 76.469635,126.905192 76.5965338,126.862917 C76.7235684,126.820502 76.8153163,126.771169 76.8718465,126.714639 L79.2854542,124.258617 C79.7938738,123.807003 80.3864288,123.581163 81.0640222,123.581163 C81.5440719,123.581163 81.9249708,123.665784 82.2072742,123.835232 L82.2495492,123.835232 L90.4221063,128.662587 C91.015145,129.029857 91.3679528,129.495514 91.4809418,130.060117 L91.4809418,130.060117 Z"></path>
            </g>
        </g>
    </g>
</svg>