<?xml version="1.0" encoding="UTF-8"?>
<svg width="40px" height="40px" viewBox="0 0 40 40" version="1.1" xmlns="http://www.w3.org/2000/svg" xmlns:xlink="http://www.w3.org/1999/xlink">
    <!-- Generator: Sketch 58 (84663) - https://sketch.com -->
    <title>settings_1_</title>
    <desc>Created with Sketch.</desc>
    <g id="08_settings" stroke="none" stroke-width="1" fill="none" fill-rule="evenodd">
        <g id="08_settings_02_details" transform="translate(-275.000000, -1911.000000)" fill="#313670">
            <g id="social-connect" transform="translate(148.000000, 1794.000000)">
                <g id="facebook-connect" transform="translate(6.000000, 92.000000)">
                    <path d="M159.537541,42.087431 L155.575081,41.4264023 C155.287089,40.2489913 154.867178,39.1234982 154.320301,38.073765 L156.856956,34.9285835 C157.396465,34.2638946 157.371958,33.30751 156.80316,32.6659912 L155.22722,30.8923733 C154.655969,30.2515244 153.708648,30.1159883 152.986056,30.5725062 L149.597392,32.7026874 C148.106945,31.6613466 146.418637,30.8923733 144.597387,30.446167 L143.934439,26.4624569 C143.795332,25.6189292 143.065377,25 142.208501,25 L139.833587,25 C138.978452,25 138.24604,25.6189293 138.110013,26.4624569 L137.44345,30.4474169 C135.937689,30.8160776 134.525902,31.411168 133.237508,32.1949184 L130.014825,29.8950052 C129.320271,29.3987989 128.366297,29.4763887 127.76018,30.0812101 L126.082366,31.7602301 C125.477544,32.3663467 125.399954,33.3203208 125.897455,34.0148753 L128.202726,37.2437179 C127.426341,38.5223794 126.837367,39.9261308 126.46875,41.4184976 L122.462362,42.0874715 C121.620135,42.2265828 121,42.9565835 121,43.813504 L121,46.1865425 C121,47.0433736 121.620135,47.7734637 122.462368,47.9125714 L126.468756,48.581543 C126.771479,49.8095798 127.210944,50.9826183 127.795052,52.0702529 L125.26996,55.1976657 C124.732281,55.8617306 124.75487,56.8187404 125.323666,57.4596786 L126.898399,59.2333412 C127.469694,59.8753953 128.417508,60.0084734 129.140188,59.5531178 L132.577693,57.3937416 C134.032202,58.3886075 135.677696,59.1198158 137.443456,59.5531178 L138.110019,63.5374975 C138.24609,64.3810701 138.978458,65 139.833592,65 L142.208506,65 C143.065382,65 143.795337,64.3811154 143.934446,63.5375452 L144.598509,59.5531654 C146.085473,59.1894603 147.47936,58.6047268 148.75628,57.8344131 L152.113246,60.2319622 C152.806552,60.7299542 153.761238,60.6518292 154.366732,60.0450873 L156.045218,58.3666492 C156.649325,57.7623606 156.731155,56.8089223 156.229459,56.1131191 L153.839456,52.7622652 C154.618073,51.4793205 155.21017,50.0730681 155.576466,48.5740471 L159.538881,47.9124403 C160.383571,47.773335 161.001205,47.0432878 161.001205,46.1864138 L161.001205,43.813374 C160.999954,42.9565835 160.382321,42.2265828 159.537541,42.087431 L159.537541,42.087431 Z M141.063396,52.5000172 C136.922149,52.5000172 133.563396,49.1406386 133.563396,45 C133.563396,40.8587536 136.922149,37.5 141.063396,37.5 C145.203945,37.5 148.563324,40.8587536 148.563324,45 C148.563324,49.1406386 145.203945,52.5000172 141.063396,52.5000172 L141.063396,52.5000172 Z" id="settings_1_"></path>
                </g>
            </g>
        </g>
    </g>
</svg>