<?xml version="1.0" encoding="UTF-8"?>
<svg width="30px" height="30px" viewBox="0 0 60 61" version="1.1" xmlns="http://www.w3.org/2000/svg" xmlns:xlink="http://www.w3.org/1999/xlink">
    <!-- Generator: Sketch 58 (84663) - https://sketch.com -->
    <title>settings phone</title>
    <desc>Created with Sketch.</desc>
    <g id="08_settings" stroke="none" stroke-width="1" fill="none" fill-rule="evenodd">
        <g id="08_settings_02_details" transform="translate(-866.000000, -1661.000000)" fill="#313670">
            <g id="phone-icon" transform="translate(148.000000, 1573.000000)">
                <path d="M775.806311,114.131146 L769.862621,113.139603 C769.430633,111.373487 768.800767,109.685247 767.980451,108.110648 L771.785433,103.392875 C772.594698,102.395842 772.557936,100.961265 771.704739,99.9989868 L769.34083,97.33856 C768.483953,96.3772867 767.062972,96.1739824 765.979084,96.8587593 L760.896088,100.054031 C758.660417,98.4920198 756.127956,97.33856 753.39608,96.6692505 L752.401658,90.6936853 C752.192998,89.4283938 751.098065,88.5 749.812752,88.5 L746.250381,88.5 C744.967678,88.5 743.86906,89.4283939 743.66502,90.6936853 L742.665175,96.6711254 C740.406533,97.2241164 738.288853,98.116752 736.356261,99.2923776 L731.522238,95.8425078 C730.480407,95.0981984 729.049445,95.214583 728.14027,96.1218152 L725.623549,98.6403451 C724.716316,99.5495201 724.599932,100.980481 725.346183,102.022313 L728.804088,106.865577 C727.639511,108.783569 726.756051,110.889196 726.203125,113.127746 L720.193544,114.131207 C718.930202,114.339874 718,115.434875 718,116.720256 L718,120.279814 C718,121.56506 718.930202,122.660196 720.193551,122.868857 L726.203133,123.872314 C726.657219,125.71437 727.316416,127.473927 728.192578,129.105379 L724.40494,133.796499 C723.598422,134.792596 723.632305,136.228111 724.485498,137.189518 L726.847599,139.850012 C727.704542,140.813093 729.126263,141.01271 730.210281,140.329677 L735.366539,137.090612 C737.548303,138.582911 740.016544,139.679724 742.665184,140.329677 L743.665029,146.306246 C743.869135,147.571605 744.967687,148.5 746.250388,148.5 L749.812759,148.5 C751.098073,148.5 752.193005,147.571673 752.401669,146.306318 L753.397764,140.329748 C755.62821,139.78419 757.71904,138.90709 759.634421,137.75162 L764.669869,141.347943 C765.709829,142.094931 767.141857,141.977744 768.050098,141.067631 L770.567828,138.549974 C771.473987,137.643541 771.596732,136.213383 770.844189,135.169679 L767.259184,130.143398 C768.42711,128.218981 769.315255,126.109602 769.864699,123.861071 L775.808321,122.86866 C777.075356,122.660002 778.001808,121.564932 778.001808,120.279621 L778.001808,116.720061 C777.999931,115.434875 777.073482,114.339874 775.806311,114.131146 L775.806311,114.131146 Z M748.095083,129.750027 C741.883202,129.750027 736.845072,124.710959 736.845072,118.500013 C736.845072,112.288131 741.883202,107.25 748.095083,107.25 C754.305895,107.25 759.344963,112.288131 759.344963,118.500013 C759.344963,124.710959 754.305895,129.750027 748.095083,129.750027 L748.095083,129.750027 Z" id="settings-phone"></path>
            </g>
        </g>
    </g>
</svg>