<?xml version="1.0" encoding="UTF-8"?>
<svg width="60px" height="60px" viewBox="0 0 60 60" version="1.1" xmlns="http://www.w3.org/2000/svg" xmlns:xlink="http://www.w3.org/1999/xlink">
    <!-- Generator: Sketch 58 (84663) - https://sketch.com -->
    <title>Shape</title>
    <desc>Created with Sketch.</desc>
    <g id="08_settings" stroke="none" stroke-width="1" fill="none" fill-rule="evenodd">
        <g id="08_settings_02_details" transform="translate(-482.000000, -1902.000000)" fill="#313670">
            <g id="social-connect" transform="translate(148.000000, 1794.000000)">
                <g id="google-connect" transform="translate(310.000000, 92.000000)">
                    <path d="M56.9002579,52.1890986 L71.5507762,52.1890986 C68.9791502,59.4597154 62.0142509,64.6725419 53.8602274,64.6123767 C43.9664119,64.5393237 35.7855796,56.6245223 35.4014824,46.7378748 C34.9897604,36.1401225 43.4920701,27.3871426 53.9999909,27.3871426 C58.8045795,27.3871426 63.1890497,29.2177909 66.4944928,32.2175086 C67.2774202,32.9282003 68.469203,32.9327006 69.2392405,32.2078911 L74.6202783,27.143426 C75.4617306,26.3512904 75.4647985,25.0136036 74.6258026,24.2188084 C69.3837077,19.2525658 62.3516879,16.1570782 54.5971105,16.0056501 C38.0574184,15.6827383 24.1159548,29.2435761 24.0007463,45.7861252 C23.8845146,62.4528829 37.3602331,76.0000081 53.9999909,76.0000081 C70.0021126,76.0000081 83.0744975,63.470521 83.9501215,47.6873698 C83.9734521,47.4894843 83.9887948,40.8018694 83.9887948,40.8018694 L56.9002579,40.8018694 C55.7899194,40.8018694 54.8899386,41.7018465 54.8899386,42.8121856 L54.8899386,50.1787825 C54.8899422,51.2891197 55.7901232,52.1890986 56.9002579,52.1890986 L56.9002579,52.1890986 Z" id="Shape"></path>
                </g>
            </g>
        </g>
    </g>
</svg>