<?xml version="1.0" encoding="UTF-8"?>
<svg width="25px" height="25px" viewBox="0 0 50 50" version="1.1" xmlns="http://www.w3.org/2000/svg" xmlns:xlink="http://www.w3.org/1999/xlink">
    <!-- Generator: Sketch 58 (84663) - https://sketch.com -->
    <title>settings-accounts-page</title>
    <desc>Created with Sketch.</desc>
    <g id="08_settings" stroke="none" stroke-width="1" fill="none" fill-rule="evenodd" fill-opacity="0.749019608">
        <g id="08_settings_03_banks" transform="translate(-869.000000, -675.000000)" fill="#FFFFFF">
            <g id="capital-one" transform="translate(151.000000, 619.000000)">
                <path d="M766.171922,77.3592887 L761.218848,76.5330029 C760.858858,75.0612391 760.333969,73.6543728 759.650373,72.3422063 L762.821191,68.4107294 C763.495578,67.5798682 763.464944,66.3843875 762.753946,65.582489 L760.784022,63.3654667 C760.069958,62.5644056 758.885807,62.3949853 757.982567,62.9656327 L753.746737,65.6283592 C751.883678,64.3266832 749.773294,63.3654667 747.496731,62.8077087 L746.668046,57.8280711 C746.494163,56.7736615 745.581719,56 744.510624,56 L741.541982,56 C740.473063,56 739.557548,56.7736616 739.387515,57.8280711 L738.554311,62.8092711 C736.67211,63.270097 734.907376,64.01396 733.296883,64.993648 L729.268531,62.1187565 C728.400338,61.4984987 727.20787,61.5954859 726.450224,62.3515127 L724.352957,64.4502876 C723.596929,65.2079334 723.499943,66.4004011 724.121818,67.2685941 L727.003406,71.3046474 C726.032925,72.9029742 725.296709,74.6576635 724.835937,76.523122 L719.827953,77.3593394 C718.775168,77.5332285 718,78.4457294 718,79.51688 L718,82.4831781 C718,83.554217 718.775168,84.4668297 719.827959,84.6407143 L724.835944,85.4769287 C725.214349,87.0119748 725.763679,88.4782729 726.493814,89.8378161 L723.33745,93.7470821 C722.665351,94.5771632 722.693587,95.7734255 723.404582,96.5745983 L725.372999,98.7916765 C726.087117,99.5942441 727.271885,99.7605917 728.175234,99.1913972 L732.472115,96.492177 C734.290251,97.7357594 736.347119,98.6497698 738.554318,99.1913972 L739.387523,104.171872 C739.557611,105.226338 740.473071,106 741.541988,106 L744.51063,106 C745.581725,106 746.494169,105.226394 746.668055,104.171932 L747.498135,99.1914568 C749.356839,98.7368253 751.099198,98.0059085 752.695348,97.0430163 L756.891555,100.039953 C757.758188,100.662443 758.951544,100.564787 759.708412,99.8063592 L761.80652,97.7083114 C762.561653,96.9529507 762.66394,95.7611529 762.036821,94.8913989 L759.049317,90.7028315 C760.022588,89.0991507 760.76271,87.3413352 761.220579,85.4675589 L766.173597,84.6405504 C767.22946,84.4666687 768.001503,83.5541097 768.001503,82.4830172 L768.001503,79.5167176 C767.999938,78.4457294 767.227898,77.5332285 766.171922,77.3592887 L766.171922,77.3592887 Z M743.079235,90.3750191 C737.902666,90.3750191 733.704224,86.1757964 733.704224,81.0000095 C733.704224,75.8234415 737.902666,71.625 743.079235,71.625 C748.254911,71.625 752.454136,75.8234415 752.454136,81.0000095 C752.454136,86.1757964 748.254911,90.3750191 743.079235,90.3750191 L743.079235,90.3750191 Z" id="settings-accounts-page"></path>
            </g>
        </g>
    </g>
</svg>